<svg width="19" height="10" viewBox="0 0 19 10" fill="none" xmlns="http://www.w3.org/2000/svg">
<path d="M0.653061 2.93878H17.6327C17.9933 2.93878 18.2857 2.64641 18.2857 2.28571V0.653061C18.2857 0.292367 17.9933 0 17.6327 0H0.653061C0.292367 0 0 0.292367 0 0.653061V2.28571C0 2.64641 0.292367 2.93878 0.653061 2.93878Z" fill="#262626"/>
<path d="M0.5 9.46942H13.5C13.7762 9.46942 14 9.17705 14 8.81635V7.1837C14 6.82301 13.7762 6.53064 13.5 6.53064H0.5C0.223844 6.53064 0 6.82301 0 7.1837V8.81635C0 9.17705 0.223844 9.46942 0.5 9.46942Z" fill="#262626"/>
</svg>
